<svg width="212" height="423" viewBox="0 0 212 423" fill="none" xmlns="http://www.w3.org/2000/svg">
<path d="M4.23149 67.9149L206.001 2.81934L206.001 422.819L1.11845 326.893L4.23149 67.9149Z" fill="#248EF0"/>
<path d="M142.64 244.202V262H68.958V246.912L103.382 210.438C106.604 206.727 109.168 203.455 111.072 200.623C113.025 197.791 114.441 195.228 115.32 192.933C116.199 190.589 116.639 188.44 116.639 186.487C116.639 183.313 116.126 180.628 115.101 178.431C114.124 176.233 112.684 174.549 110.779 173.377C108.875 172.205 106.556 171.619 103.821 171.619C100.892 171.619 98.377 172.376 96.2773 173.89C94.1777 175.403 92.5664 177.503 91.4434 180.188C90.3203 182.825 89.7588 185.828 89.7588 189.197H66.7607C66.7607 182.703 68.3232 176.795 71.4482 171.473C74.5732 166.102 78.9434 161.829 84.5586 158.655C90.1738 155.433 96.7412 153.821 104.261 153.821C111.976 153.821 118.445 155.042 123.67 157.483C128.895 159.925 132.85 163.416 135.535 167.957C138.221 172.498 139.563 177.967 139.563 184.363C139.563 187.977 138.978 191.468 137.806 194.837C136.683 198.206 135.047 201.551 132.898 204.871C130.75 208.191 128.162 211.585 125.135 215.052C122.107 218.47 118.689 222.083 114.881 225.892L98.7676 244.202H142.64Z" fill="white"/>
</svg>
