<svg width="212" height="423" viewBox="0 0 212 423" fill="none" xmlns="http://www.w3.org/2000/svg">
<path d="M4.23149 67.9149L206.001 2.81934L206.001 422.819L1.11845 326.893L4.23149 67.9149Z" fill="#248EF0"/>
<path d="M91.0039 198.938H102.649C105.97 198.938 108.704 198.353 110.853 197.181C113.05 196.009 114.661 194.349 115.687 192.2C116.761 190.052 117.298 187.537 117.298 184.656C117.298 182.166 116.81 179.944 115.833 177.991C114.856 176.038 113.367 174.5 111.365 173.377C109.412 172.205 106.873 171.619 103.748 171.619C101.502 171.619 99.3535 172.083 97.3027 173.011C95.3008 173.89 93.665 175.184 92.3955 176.893C91.126 178.553 90.4912 180.555 90.4912 182.898H67.5664C67.5664 176.941 69.1777 171.79 72.4004 167.444C75.6719 163.099 79.9932 159.754 85.3643 157.41C90.7842 155.018 96.6924 153.821 103.089 153.821C110.462 153.821 116.932 154.993 122.498 157.337C128.113 159.632 132.459 163.05 135.535 167.591C138.66 172.083 140.223 177.649 140.223 184.29C140.223 187.757 139.393 191.102 137.732 194.324C136.121 197.498 133.802 200.33 130.774 202.82C127.796 205.262 124.231 207.215 120.081 208.68C115.979 210.096 111.414 210.804 106.385 210.804H91.0039V198.938ZM91.0039 216.15V204.505H106.385C111.951 204.505 116.932 205.14 121.326 206.409C125.721 207.679 129.456 209.51 132.532 211.902C135.608 214.295 137.952 217.2 139.563 220.618C141.175 224.036 141.98 227.845 141.98 232.044C141.98 237.024 141.004 241.468 139.051 245.374C137.098 249.28 134.363 252.576 130.848 255.262C127.332 257.947 123.206 259.998 118.47 261.414C113.733 262.781 108.606 263.465 103.089 263.465C98.6455 263.465 94.2266 262.854 89.832 261.634C85.4375 260.413 81.458 258.558 77.8936 256.067C74.3291 253.528 71.4727 250.33 69.3242 246.473C67.1758 242.566 66.1016 237.928 66.1016 232.557H89.0264C89.0264 235.047 89.6611 237.293 90.9307 239.295C92.249 241.248 94.0312 242.811 96.2773 243.982C98.5723 245.105 101.062 245.667 103.748 245.667C106.971 245.667 109.705 245.081 111.951 243.909C114.246 242.688 115.979 241.028 117.151 238.929C118.372 236.829 118.982 234.412 118.982 231.678C118.982 227.967 118.323 224.988 117.005 222.742C115.735 220.447 113.88 218.787 111.438 217.762C108.997 216.688 106.067 216.15 102.649 216.15H91.0039Z" fill="white"/>
</svg>
