<svg width="442" height="87" viewBox="0 0 442 87" fill="none" xmlns="http://www.w3.org/2000/svg">
<path d="M84.44 28.768C84.184 27.9573 83.8213 27.3387 83.352 26.912C82.8827 26.4427 82.392 26.1227 81.88 25.952C81.368 25.7813 80.8987 25.696 80.472 25.696H79V22.304H100.12V25.696H97.176C96.5787 25.696 96.0027 25.8453 95.448 26.144C94.936 26.4427 94.68 26.9973 94.68 27.808C94.68 28.064 94.7013 28.3627 94.744 28.704C94.8293 29.0453 94.9147 29.3867 95 29.728C95.0853 30.0267 95.1707 30.304 95.256 30.56L101.784 50.272C101.955 50.7413 102.125 51.3173 102.296 52C102.509 52.64 102.701 53.344 102.872 54.112C103.043 54.8373 103.192 55.5627 103.32 56.288C103.491 56.9707 103.597 57.6107 103.64 58.208C103.768 57.4827 103.939 56.672 104.152 55.776C104.365 54.88 104.6 53.9627 104.856 53.024C105.155 52.0853 105.432 51.232 105.688 50.464L112.28 31.008C112.408 30.7093 112.515 30.368 112.6 29.984C112.728 29.5573 112.835 29.152 112.92 28.768C113.005 28.384 113.048 28.0853 113.048 27.872C113.048 27.1467 112.813 26.6133 112.344 26.272C111.875 25.888 111.256 25.696 110.488 25.696H107.16V22.304H123.672V25.696H120.6C120.216 25.696 119.875 25.824 119.576 26.08C119.277 26.2933 118.979 26.7413 118.68 27.424C118.381 28.064 117.997 29.0453 117.528 30.368L104.472 68H98.072L84.44 28.768ZM139.459 68.64C134.04 68.64 129.923 67.104 127.107 64.032C124.291 60.9173 122.883 56.5867 122.883 51.04C122.883 45.024 124.27 40.5013 127.043 37.472C129.816 34.4 133.72 32.864 138.755 32.864C143.406 32.864 147.054 34.1653 149.699 36.768C152.387 39.3707 153.731 43.2107 153.731 48.288V51.552H132.739C132.824 54.4107 133.208 56.7573 133.891 58.592C134.574 60.384 135.534 61.7067 136.771 62.56C138.051 63.4133 139.566 63.84 141.315 63.84C142.808 63.84 144.131 63.6267 145.283 63.2C146.478 62.7307 147.502 62.112 148.355 61.344C149.208 60.5333 149.87 59.6373 150.339 58.656C150.936 58.9547 151.363 59.3813 151.619 59.936C151.918 60.448 152.067 61.0667 152.067 61.792C152.067 62.9867 151.619 64.1173 150.723 65.184C149.827 66.208 148.44 67.04 146.563 67.68C144.728 68.32 142.36 68.64 139.459 68.64ZM143.939 47.456C143.939 45.28 143.768 43.424 143.427 41.888C143.086 40.3093 142.552 39.1147 141.827 38.304C141.102 37.4507 140.12 37.024 138.883 37.024C137.688 37.024 136.643 37.4293 135.747 38.24C134.894 39.008 134.211 40.1813 133.699 41.76C133.23 43.296 132.952 45.1947 132.867 47.456H143.939ZM157.718 68V64.608H157.91C158.891 64.608 159.744 64.5013 160.47 64.288C161.195 64.0747 161.771 63.648 162.198 63.008C162.624 62.3253 162.838 61.3227 162.838 60V41.44C162.838 40.16 162.646 39.2213 162.262 38.624C161.878 37.984 161.344 37.5787 160.661 37.408C159.979 37.1947 159.168 37.088 158.23 37.088H158.038V33.696H170.966L172.246 38.688H172.566C173.12 37.408 173.76 36.3413 174.486 35.488C175.211 34.6347 176.128 33.9947 177.238 33.568C178.39 33.1413 179.84 32.928 181.59 32.928C184.107 32.928 185.963 33.376 187.158 34.272C188.352 35.168 188.95 36.448 188.95 38.112C188.95 40.0747 188.224 41.6107 186.774 42.72C185.366 43.7867 183.382 44.32 180.822 44.32C180.822 43.1253 180.715 42.144 180.502 41.376C180.331 40.608 180.011 40.032 179.542 39.648C179.115 39.2213 178.496 39.008 177.686 39.008C176.576 39.008 175.68 39.392 174.998 40.16C174.315 40.928 173.803 41.888 173.462 43.04C173.12 44.1493 172.886 45.28 172.758 46.432C172.63 47.584 172.566 48.5227 172.566 49.248V60.32C172.566 61.5573 172.758 62.496 173.142 63.136C173.526 63.7333 174.059 64.1387 174.742 64.352C175.424 64.5227 176.192 64.608 177.046 64.608H179.094V68H157.718ZM201.616 68.64C199.738 68.64 198.032 68.2773 196.496 67.552C195.002 66.784 193.808 65.632 192.911 64.096C192.016 62.5173 191.568 60.5547 191.568 58.208C191.568 54.752 192.762 52.192 195.152 50.528C197.541 48.864 201.125 47.9467 205.904 47.776L211.152 47.584V44.064C211.152 42.6133 211.066 41.3547 210.896 40.288C210.725 39.1787 210.362 38.3253 209.808 37.728C209.253 37.088 208.378 36.768 207.184 36.768C206.117 36.768 205.264 37.0667 204.624 37.664C203.984 38.2613 203.536 39.0933 203.28 40.16C203.024 41.184 202.896 42.3573 202.896 43.68C200.037 43.68 197.882 43.36 196.432 42.72C194.981 42.08 194.256 40.9707 194.256 39.392C194.256 37.8133 194.853 36.5547 196.048 35.616C197.242 34.6773 198.842 33.9947 200.848 33.568C202.853 33.0987 205.05 32.864 207.44 32.864C211.92 32.864 215.269 33.6747 217.488 35.296C219.749 36.9173 220.88 39.7333 220.88 43.744V60.064C220.88 61.216 220.986 62.1333 221.2 62.816C221.456 63.456 221.861 63.9253 222.416 64.224C223.013 64.48 223.781 64.608 224.72 64.608H224.976V68H213.072L211.728 63.584H211.152C210.213 64.736 209.317 65.696 208.464 66.464C207.653 67.1893 206.714 67.7227 205.648 68.064C204.581 68.448 203.237 68.64 201.616 68.64ZM205.135 63.968C206.373 63.968 207.44 63.648 208.336 63.008C209.232 62.3253 209.914 61.3653 210.384 60.128C210.896 58.8907 211.152 57.44 211.152 55.776V50.976L208.272 51.168C206.565 51.2533 205.221 51.5947 204.24 52.192C203.258 52.7467 202.554 53.5573 202.128 54.624C201.701 55.648 201.488 56.928 201.488 58.464C201.488 59.6587 201.616 60.6827 201.872 61.536C202.128 62.3467 202.533 62.9653 203.088 63.392C203.642 63.776 204.325 63.968 205.135 63.968ZM245.88 68.64C242.765 68.64 240.013 68.0853 237.624 66.976C235.235 65.824 233.357 63.968 231.992 61.408C230.669 58.8053 230.008 55.328 230.008 50.976C230.008 46.368 230.691 42.7627 232.056 40.16C233.464 37.5147 235.341 35.6373 237.688 34.528C240.077 33.4187 242.744 32.864 245.688 32.864C248.461 32.864 250.787 33.1627 252.664 33.76C254.541 34.3573 255.949 35.168 256.888 36.192C257.869 37.1733 258.36 38.304 258.36 39.584C258.36 40.48 258.125 41.3547 257.656 42.208C257.229 43.0187 256.419 43.7013 255.224 44.256C254.029 44.768 252.323 45.024 250.104 45.024C250.104 43.5307 249.976 42.1653 249.72 40.928C249.464 39.6907 249.037 38.688 248.44 37.92C247.843 37.152 247.011 36.768 245.944 36.768C244.707 36.768 243.619 37.1947 242.68 38.048C241.784 38.8587 241.08 40.288 240.568 42.336C240.099 44.384 239.864 47.2427 239.864 50.912C239.864 53.7707 240.12 56.16 240.632 58.08C241.187 60 242.019 61.4507 243.128 62.432C244.237 63.3707 245.688 63.84 247.48 63.84C248.973 63.84 250.317 63.6267 251.512 63.2C252.749 62.7307 253.816 62.112 254.712 61.344C255.608 60.5333 256.291 59.6373 256.76 58.656C257.272 58.9547 257.656 59.3813 257.912 59.936C258.168 60.448 258.296 61.0027 258.296 61.6C258.296 62.6667 257.848 63.7547 256.952 64.864C256.099 65.9307 254.755 66.8267 252.92 67.552C251.128 68.2773 248.781 68.64 245.88 68.64ZM261.838 68V64.608H262.606C263.246 64.608 263.907 64.5227 264.59 64.352C265.315 64.1387 265.913 63.7333 266.382 63.136C266.894 62.5387 267.15 61.6427 267.15 60.448V40.992C267.15 39.84 266.894 38.9867 266.382 38.432C265.87 37.8773 265.251 37.5147 264.526 37.344C263.843 37.1733 263.203 37.088 262.606 37.088H261.838V33.696H276.878V60.448C276.878 61.6427 277.113 62.5387 277.582 63.136C278.094 63.7333 278.713 64.1387 279.438 64.352C280.163 64.5227 280.825 64.608 281.422 64.608H282.19V68H261.838ZM271.694 27.936C270.158 27.936 268.857 27.5733 267.79 26.848C266.766 26.08 266.254 24.9067 266.254 23.328C266.254 21.7067 266.787 20.5333 267.854 19.808C268.921 19.0827 270.222 18.72 271.758 18.72C273.209 18.72 274.467 19.0827 275.534 19.808C276.643 20.5333 277.198 21.7067 277.198 23.328C277.198 24.9067 276.643 26.08 275.534 26.848C274.467 27.5733 273.187 27.936 271.694 27.936ZM299.25 68.64C296.477 68.64 294.109 68.0213 292.146 66.784C290.183 65.5467 288.69 63.6267 287.666 61.024C286.685 58.3787 286.194 55.008 286.194 50.912C286.194 46.7733 286.685 43.3813 287.666 40.736C288.69 38.0907 290.162 36.128 292.082 34.848C294.045 33.568 296.391 32.928 299.122 32.928C301.511 32.928 303.474 33.4187 305.01 34.4C306.546 35.3387 307.762 36.5547 308.658 38.048H309.106C309.021 37.2373 308.935 36.3627 308.85 35.424C308.765 34.4853 308.701 33.568 308.658 32.672C308.615 31.7333 308.594 30.9227 308.594 30.24V26.72C308.594 25.5253 308.359 24.6507 307.89 24.096C307.421 23.5413 306.781 23.1787 305.97 23.008C305.202 22.8373 304.349 22.752 303.41 22.752H302.898V19.36H318.322V60.128C318.322 61.408 318.557 62.368 319.026 63.008C319.538 63.648 320.199 64.0747 321.01 64.288C321.821 64.5013 322.695 64.608 323.634 64.608H323.89V68H311.474L309.682 63.008H309.106C308.167 64.7147 306.909 66.08 305.33 67.104C303.794 68.128 301.767 68.64 299.25 68.64ZM302.002 63.84C304.519 63.84 306.247 62.7733 307.186 60.64C308.125 58.464 308.594 55.1787 308.594 50.784C308.594 47.968 308.381 45.5787 307.954 43.616C307.57 41.6533 306.909 40.1813 305.97 39.2C305.031 38.176 303.709 37.664 302.002 37.664C300.594 37.664 299.442 38.176 298.546 39.2C297.693 40.224 297.053 41.7173 296.626 43.68C296.242 45.6 296.05 47.9893 296.05 50.848C296.05 53.7493 296.242 56.16 296.626 58.08C297.053 60 297.693 61.4507 298.546 62.432C299.442 63.3707 300.594 63.84 302.002 63.84ZM337.741 68.64C335.863 68.64 334.157 68.2773 332.621 67.552C331.127 66.784 329.933 65.632 329.036 64.096C328.141 62.5173 327.693 60.5547 327.693 58.208C327.693 54.752 328.887 52.192 331.277 50.528C333.666 48.864 337.25 47.9467 342.029 47.776L347.277 47.584V44.064C347.277 42.6133 347.191 41.3547 347.021 40.288C346.85 39.1787 346.487 38.3253 345.933 37.728C345.378 37.088 344.503 36.768 343.309 36.768C342.242 36.768 341.389 37.0667 340.749 37.664C340.109 38.2613 339.661 39.0933 339.405 40.16C339.149 41.184 339.021 42.3573 339.021 43.68C336.162 43.68 334.007 43.36 332.557 42.72C331.106 42.08 330.381 40.9707 330.381 39.392C330.381 37.8133 330.978 36.5547 332.173 35.616C333.367 34.6773 334.967 33.9947 336.973 33.568C338.978 33.0987 341.175 32.864 343.565 32.864C348.045 32.864 351.394 33.6747 353.613 35.296C355.874 36.9173 357.005 39.7333 357.005 43.744V60.064C357.005 61.216 357.111 62.1333 357.325 62.816C357.581 63.456 357.986 63.9253 358.541 64.224C359.138 64.48 359.906 64.608 360.845 64.608H361.101V68H349.197L347.853 63.584H347.277C346.338 64.736 345.442 65.696 344.589 66.464C343.778 67.1893 342.839 67.7227 341.773 68.064C340.706 68.448 339.362 68.64 337.741 68.64ZM341.26 63.968C342.498 63.968 343.565 63.648 344.461 63.008C345.357 62.3253 346.039 61.3653 346.509 60.128C347.021 58.8907 347.277 57.44 347.277 55.776V50.976L344.397 51.168C342.69 51.2533 341.346 51.5947 340.365 52.192C339.383 52.7467 338.679 53.5573 338.253 54.624C337.826 55.648 337.613 56.928 337.613 58.464C337.613 59.6587 337.741 60.6827 337.997 61.536C338.253 62.3467 338.658 62.9653 339.213 63.392C339.767 63.776 340.45 63.968 341.26 63.968ZM379.125 68.64C376.352 68.64 373.984 68.0213 372.021 66.784C370.058 65.5467 368.565 63.6267 367.541 61.024C366.56 58.3787 366.069 55.008 366.069 50.912C366.069 46.7733 366.56 43.3813 367.541 40.736C368.565 38.0907 370.037 36.128 371.957 34.848C373.92 33.568 376.266 32.928 378.997 32.928C381.386 32.928 383.349 33.4187 384.885 34.4C386.421 35.3387 387.637 36.5547 388.533 38.048H388.981C388.896 37.2373 388.81 36.3627 388.725 35.424C388.64 34.4853 388.576 33.568 388.533 32.672C388.49 31.7333 388.469 30.9227 388.469 30.24V26.72C388.469 25.5253 388.234 24.6507 387.765 24.096C387.296 23.5413 386.656 23.1787 385.845 23.008C385.077 22.8373 384.224 22.752 383.285 22.752H382.773V19.36H398.197V60.128C398.197 61.408 398.432 62.368 398.901 63.008C399.413 63.648 400.074 64.0747 400.885 64.288C401.696 64.5013 402.57 64.608 403.509 64.608H403.765V68H391.349L389.557 63.008H388.981C388.042 64.7147 386.784 66.08 385.205 67.104C383.669 68.128 381.642 68.64 379.125 68.64ZM381.877 63.84C384.394 63.84 386.122 62.7733 387.061 60.64C388 58.464 388.469 55.1787 388.469 50.784C388.469 47.968 388.256 45.5787 387.829 43.616C387.445 41.6533 386.784 40.1813 385.845 39.2C384.906 38.176 383.584 37.664 381.877 37.664C380.469 37.664 379.317 38.176 378.421 39.2C377.568 40.224 376.928 41.7173 376.501 43.68C376.117 45.6 375.925 47.9893 375.925 50.848C375.925 53.7493 376.117 56.16 376.501 58.08C376.928 60 377.568 61.4507 378.421 62.432C379.317 63.3707 380.469 63.84 381.877 63.84ZM424.272 68.64C418.853 68.64 414.736 67.104 411.92 64.032C409.104 60.9173 407.696 56.5867 407.696 51.04C407.696 45.024 409.082 40.5013 411.856 37.472C414.629 34.4 418.533 32.864 423.568 32.864C428.218 32.864 431.866 34.1653 434.512 36.768C437.2 39.3707 438.544 43.2107 438.544 48.288V51.552H417.552C417.637 54.4107 418.021 56.7573 418.704 58.592C419.386 60.384 420.346 61.7067 421.583 62.56C422.863 63.4133 424.378 63.84 426.128 63.84C427.621 63.84 428.944 63.6267 430.096 63.2C431.29 62.7307 432.314 62.112 433.168 61.344C434.021 60.5333 434.682 59.6373 435.152 58.656C435.749 58.9547 436.176 59.3813 436.432 59.936C436.73 60.448 436.88 61.0667 436.88 61.792C436.88 62.9867 436.432 64.1173 435.536 65.184C434.64 66.208 433.253 67.04 431.376 67.68C429.541 68.32 427.173 68.64 424.272 68.64ZM428.752 47.456C428.752 45.28 428.581 43.424 428.24 41.888C427.898 40.3093 427.365 39.1147 426.64 38.304C425.914 37.4507 424.933 37.024 423.696 37.024C422.501 37.024 421.456 37.4293 420.56 38.24C419.706 39.008 419.024 40.1813 418.512 41.76C418.042 43.296 417.765 45.1947 417.68 47.456H428.752Z" fill="#248EF0"/>
<rect y="11" width="65" height="65" fill="#248EF0"/>
<path d="M56.5868 54.3754C56.7612 54.9193 57.0067 55.3338 57.3233 55.6191C57.64 55.933 57.9707 56.1466 58.3152 56.2597C58.6597 56.3729 58.9752 56.4288 59.2619 56.4275L60.2509 56.4232L60.261 58.7022L46.0711 58.7649L46.061 56.4859L48.039 56.4772C48.4404 56.4754 48.8269 56.3733 49.1987 56.171C49.5418 55.9688 49.7121 55.5954 49.7097 55.0508C49.709 54.8788 49.6938 54.6782 49.6641 54.449C49.6057 54.2199 49.5474 53.9908 49.489 53.7617C49.4308 53.5613 49.3727 53.3752 49.3146 53.2035L44.87 39.979C44.754 39.6642 44.6376 39.2777 44.5209 38.8195C44.3757 38.3902 44.2446 37.9178 44.1276 37.4023C44.0108 36.9154 43.9083 36.4286 43.8202 35.9416C43.7035 35.4835 43.6299 35.0538 43.5995 34.6526C43.5156 35.1403 43.4034 35.6855 43.2627 36.2881C43.122 36.8907 42.9671 37.5077 42.7979 38.1392C42.6 38.7707 42.4162 39.3449 42.2465 39.8616L37.8753 52.9531C37.7902 53.1541 37.7196 53.3838 37.6634 53.642C37.5787 53.9291 37.5082 54.2017 37.452 54.46C37.3958 54.7182 37.368 54.919 37.3687 55.0623C37.3708 55.5497 37.5301 55.9073 37.8464 56.1352C38.1629 56.3918 38.5791 56.519 39.0951 56.5167L41.3311 56.5068L41.3412 58.7858L30.2473 58.8348L30.2372 56.5559L32.3012 56.5467C32.5592 56.5456 32.7881 56.4586 32.988 56.2857C33.1881 56.1415 33.3874 55.8396 33.586 55.3801C33.7848 54.9492 34.0399 54.2887 34.3513 53.3986L43.0114 28.0761L47.3114 28.0571L56.5868 54.3754Z" fill="white"/>
<path d="M10.655 32.641C10.483 32.0963 10.2393 31.6807 9.924 31.394C9.60867 31.0787 9.279 30.8637 8.935 30.749C8.591 30.6343 8.27567 30.577 7.989 30.577H7V28.298H21.19V30.577H19.212C18.8107 30.577 18.4237 30.6773 18.051 30.878C17.707 31.0787 17.535 31.4513 17.535 31.996C17.535 32.168 17.5493 32.3687 17.578 32.598C17.6353 32.8273 17.6927 33.0567 17.75 33.286C17.8073 33.4867 17.8647 33.673 17.922 33.845L22.308 47.089C22.4227 47.4043 22.5373 47.7913 22.652 48.25C22.7953 48.68 22.9243 49.153 23.039 49.669C23.1537 50.1563 23.254 50.6437 23.34 51.131C23.4547 51.5897 23.5263 52.0197 23.555 52.421C23.641 51.9337 23.7557 51.389 23.899 50.787C24.0423 50.185 24.2 49.5687 24.372 48.938C24.5727 48.3073 24.759 47.734 24.931 47.218L29.36 34.146C29.446 33.9453 29.5177 33.716 29.575 33.458C29.661 33.1713 29.7327 32.899 29.79 32.641C29.8473 32.383 29.876 32.1823 29.876 32.039C29.876 31.5517 29.7183 31.1933 29.403 30.964C29.0877 30.706 28.672 30.577 28.156 30.577H25.92V28.298H37.014V30.577H34.95C34.692 30.577 34.4627 30.663 34.262 30.835C34.0613 30.9783 33.8607 31.2793 33.66 31.738C33.4593 32.168 33.2013 32.8273 32.886 33.716L24.114 59H19.814L10.655 32.641Z" fill="white"/>
</svg>
